<svg width="24" height="24" viewBox="0 0 24 24" fill="none" xmlns="http://www.w3.org/2000/svg">
<path d="M18.6237 4.94765L19.0524 5.37632C19.3854 5.70934 19.3854 6.24785 19.0524 6.57733L18.0214 7.61182L16.3882 5.9786L17.4191 4.94765C17.7522 4.61462 18.2907 4.61462 18.6201 4.94765H18.6237ZM10.4328 11.9376L15.1872 7.1796L16.8204 8.81282L12.0624 13.5672C11.9597 13.67 11.8322 13.7444 11.694 13.7833L9.62146 14.375L10.2131 12.3025C10.2521 12.1643 10.3265 12.0368 10.4292 11.934L10.4328 11.9376ZM16.2181 3.74664L9.22821 10.733C8.91999 11.0412 8.6968 11.4203 8.57989 11.8348L7.56665 15.3776C7.48162 15.6752 7.56311 15.994 7.78276 16.2137C8.00241 16.4334 8.32126 16.5148 8.61886 16.4298L12.1616 15.4166C12.5797 15.2961 12.9588 15.0729 13.2634 14.7682L20.2534 7.78187C21.2489 6.78635 21.2489 5.17084 20.2534 4.17532L19.8247 3.74664C18.8292 2.75112 17.2136 2.75112 16.2181 3.74664ZM6.11765 5.12833C4.39586 5.12833 3 6.52418 3 8.24598V17.8823C3 19.6041 4.39586 21 6.11765 21H15.754C17.4758 21 18.8717 19.6041 18.8717 17.8823V13.9144C18.8717 13.4432 18.4926 13.0642 18.0214 13.0642C17.5502 13.0642 17.1711 13.4432 17.1711 13.9144V17.8823C17.1711 18.6653 16.537 19.2995 15.754 19.2995H6.11765C5.33469 19.2995 4.70054 18.6653 4.70054 17.8823V8.24598C4.70054 7.46302 5.33469 6.82886 6.11765 6.82886H10.0856C10.5568 6.82886 10.9358 6.44979 10.9358 5.9786C10.9358 5.50741 10.5568 5.12833 10.0856 5.12833H6.11765Z" fill="#4C5FD6"/>
</svg>
