<svg width="127" height="35" viewBox="0 0 127 35" fill="none" xmlns="http://www.w3.org/2000/svg">
<circle cx="109.5" cy="17.5" r="17.5" fill="#FFE298"/>
<path d="M102.27 13.6059C102.27 13.6059 102.27 21.4076 103.391 25.2131L115.888 25.1637C116.73 20.6172 116.73 13.5497 116.73 13.5497L102.27 13.6059Z" fill="#6D4C41"/>
<path d="M109.5 7C105.506 7 102.27 10.0117 102.27 13.7286C102.27 17.4438 105.506 20.4572 109.5 20.4572C113.494 20.4572 116.73 17.4455 116.73 13.7286C116.73 10.0134 113.494 7 109.5 7Z" fill="#6D4C41"/>
<path d="M102 25.9899V27.6746H117V25.9899C117 23.4058 113.318 22.0941 109.557 22.0993C105.818 22.1044 102 23.2542 102 25.9899Z" fill="#651FFF"/>
<path d="M109.491 21.2477H107.928V22.8813C107.928 23.6206 108.565 24.2202 109.35 24.2202H109.634C110.419 24.2202 111.056 23.6206 111.056 22.8813V21.2477H109.491Z" fill="#E59900"/>
<path d="M109.257 7.98462C105.066 7.98462 103.969 11.199 103.969 15.7165C103.969 20.2323 107.221 21.6104 109.257 21.6104C111.294 21.6104 114.545 20.2323 114.545 15.7165C114.545 11.2007 113.449 7.98462 109.257 7.98462Z" fill="#FCC21B"/>
<path d="M111.061 11.739C110.505 12.2688 107.741 14.7337 103.931 15.3759V10.3218C103.931 10.3218 105.575 7.09375 109.521 7.09375C113.466 7.09375 115.112 10.4035 115.112 10.4035V15.3759C115.112 15.3759 112.526 14.3947 111.228 11.7697C111.221 11.7549 111.211 11.742 111.197 11.732C111.184 11.722 111.169 11.7153 111.153 11.7123C111.136 11.7093 111.12 11.7102 111.104 11.7148C111.088 11.7195 111.073 11.7278 111.061 11.739Z" fill="#6D4C41"/>
<path opacity="0.54" d="M113.879 26.2369H114.396V27.678H113.879V26.2369ZM104.568 26.2369H105.085V27.678H104.568V26.2369Z" fill="black"/>
<path fill-rule="evenodd" clip-rule="evenodd" d="M96.0001 33C91.5254 29.5373 88.6113 23.8849 88.6113 17.4999C88.6113 11.115 91.5253 5.46275 95.9997 2H15.5C6.93959 2 0 8.93959 0 17.5C0 26.0604 6.93957 33 15.5 33H96.0001Z" fill="white"/>
<path d="M18.5391 11.625H20.4922V19.2266C20.4922 20.0911 20.3047 20.8151 19.9297 21.3984C19.5547 21.9818 19.0443 22.4219 18.3984 22.7188C17.7578 23.0104 17.0417 23.1562 16.25 23.1562C15.4323 23.1562 14.7031 23.0104 14.0625 22.7188C13.4219 22.4219 12.9167 21.9818 12.5469 21.3984C12.1823 20.8151 12 20.0911 12 19.2266V11.625H13.9531V19.2266C13.9531 19.7734 14.0469 20.224 14.2344 20.5781C14.4219 20.9271 14.6875 21.1849 15.0312 21.3516C15.375 21.5182 15.7812 21.6016 16.25 21.6016C16.7188 21.6016 17.1224 21.5182 17.4609 21.3516C17.8047 21.1849 18.0703 20.9271 18.2578 20.5781C18.4453 20.224 18.5391 19.7734 18.5391 19.2266V11.625ZM27.1797 20.7109C27.1797 20.5234 27.1328 20.3542 27.0391 20.2031C26.9453 20.0469 26.7656 19.9062 26.5 19.7812C26.2396 19.6562 25.8542 19.5417 25.3438 19.4375C24.8958 19.3385 24.4844 19.2214 24.1094 19.0859C23.7396 18.9453 23.4219 18.776 23.1562 18.5781C22.8906 18.3802 22.6849 18.1458 22.5391 17.875C22.3932 17.6042 22.3203 17.2917 22.3203 16.9375C22.3203 16.5938 22.3958 16.2682 22.5469 15.9609C22.6979 15.6536 22.9141 15.3828 23.1953 15.1484C23.4766 14.9141 23.8177 14.7292 24.2188 14.5938C24.625 14.4583 25.0781 14.3906 25.5781 14.3906C26.2865 14.3906 26.8932 14.5104 27.3984 14.75C27.9089 14.9844 28.2995 15.3047 28.5703 15.7109C28.8411 16.112 28.9766 16.5651 28.9766 17.0703H27.0938C27.0938 16.8464 27.0365 16.638 26.9219 16.4453C26.8125 16.2474 26.6458 16.0885 26.4219 15.9688C26.1979 15.8438 25.9167 15.7812 25.5781 15.7812C25.2552 15.7812 24.987 15.8333 24.7734 15.9375C24.5651 16.0365 24.4089 16.1667 24.3047 16.3281C24.2057 16.4896 24.1562 16.6667 24.1562 16.8594C24.1562 17 24.1823 17.1276 24.2344 17.2422C24.2917 17.3516 24.3854 17.4531 24.5156 17.5469C24.6458 17.6354 24.8229 17.7188 25.0469 17.7969C25.276 17.875 25.5625 17.9505 25.9062 18.0234C26.5521 18.1589 27.1068 18.3333 27.5703 18.5469C28.0391 18.7552 28.3984 19.026 28.6484 19.3594C28.8984 19.6875 29.0234 20.1042 29.0234 20.6094C29.0234 20.9844 28.9427 21.3281 28.7812 21.6406C28.625 21.9479 28.3958 22.2161 28.0938 22.4453C27.7917 22.6693 27.4297 22.8438 27.0078 22.9688C26.5911 23.0938 26.1224 23.1562 25.6016 23.1562C24.8359 23.1562 24.1875 23.0208 23.6562 22.75C23.125 22.474 22.7214 22.1224 22.4453 21.6953C22.1745 21.263 22.0391 20.8151 22.0391 20.3516H23.8594C23.8802 20.7005 23.9766 20.9792 24.1484 21.1875C24.3255 21.3906 24.5443 21.5391 24.8047 21.6328C25.0703 21.7214 25.3438 21.7656 25.625 21.7656C25.9635 21.7656 26.2474 21.7214 26.4766 21.6328C26.7057 21.5391 26.8802 21.4141 27 21.2578C27.1198 21.0964 27.1797 20.9141 27.1797 20.7109ZM34.3984 23.1562C33.7734 23.1562 33.2083 23.0547 32.7031 22.8516C32.2031 22.6432 31.776 22.3542 31.4219 21.9844C31.0729 21.6146 30.8047 21.1797 30.6172 20.6797C30.4297 20.1797 30.3359 19.6406 30.3359 19.0625V18.75C30.3359 18.0885 30.4323 17.4896 30.625 16.9531C30.8177 16.4167 31.0859 15.9583 31.4297 15.5781C31.7734 15.1927 32.1797 14.8984 32.6484 14.6953C33.1172 14.4922 33.625 14.3906 34.1719 14.3906C34.776 14.3906 35.3047 14.4922 35.7578 14.6953C36.2109 14.8984 36.5859 15.1849 36.8828 15.5547C37.1849 15.9193 37.4089 16.3542 37.5547 16.8594C37.7057 17.3646 37.7812 17.9219 37.7812 18.5312V19.3359H31.25V17.9844H35.9219V17.8359C35.9115 17.4974 35.8438 17.1797 35.7188 16.8828C35.599 16.5859 35.4141 16.3464 35.1641 16.1641C34.9141 15.9818 34.5807 15.8906 34.1641 15.8906C33.8516 15.8906 33.5729 15.9583 33.3281 16.0938C33.0885 16.224 32.888 16.4141 32.7266 16.6641C32.5651 16.9141 32.4401 17.2161 32.3516 17.5703C32.2682 17.9193 32.2266 18.3125 32.2266 18.75V19.0625C32.2266 19.4323 32.276 19.776 32.375 20.0938C32.4792 20.4062 32.6302 20.6797 32.8281 20.9141C33.026 21.1484 33.2656 21.3333 33.5469 21.4688C33.8281 21.599 34.1484 21.6641 34.5078 21.6641C34.9609 21.6641 35.3646 21.5729 35.7188 21.3906C36.0729 21.2083 36.3802 20.9505 36.6406 20.6172L37.6328 21.5781C37.4505 21.8438 37.2135 22.099 36.9219 22.3438C36.6302 22.5833 36.2734 22.7786 35.8516 22.9297C35.4349 23.0807 34.9505 23.1562 34.3984 23.1562ZM41.1406 16.1562V23H39.2578V14.5469H41.0547L41.1406 16.1562ZM43.7266 14.4922L43.7109 16.2422C43.5964 16.2214 43.4714 16.2057 43.3359 16.1953C43.2057 16.1849 43.0755 16.1797 42.9453 16.1797C42.6224 16.1797 42.3385 16.2266 42.0938 16.3203C41.849 16.4089 41.6432 16.5391 41.4766 16.7109C41.3151 16.8776 41.1901 17.0807 41.1016 17.3203C41.013 17.5599 40.9609 17.8281 40.9453 18.125L40.5156 18.1562C40.5156 17.625 40.5677 17.1328 40.6719 16.6797C40.776 16.2266 40.9323 15.8281 41.1406 15.4844C41.3542 15.1406 41.6198 14.8724 41.9375 14.6797C42.2604 14.487 42.6328 14.3906 43.0547 14.3906C43.1693 14.3906 43.2917 14.401 43.4219 14.4219C43.5573 14.4427 43.6589 14.4661 43.7266 14.4922ZM46.7734 16.3516V23H44.8906V14.5469H46.6641L46.7734 16.3516ZM46.4375 18.4609L45.8281 18.4531C45.8333 17.8542 45.9167 17.3047 46.0781 16.8047C46.2448 16.3047 46.474 15.875 46.7656 15.5156C47.0625 15.1562 47.4167 14.8802 47.8281 14.6875C48.2396 14.4896 48.6979 14.3906 49.2031 14.3906C49.6094 14.3906 49.9766 14.4479 50.3047 14.5625C50.638 14.6719 50.9219 14.8516 51.1562 15.1016C51.3958 15.3516 51.5781 15.6771 51.7031 16.0781C51.8281 16.474 51.8906 16.9609 51.8906 17.5391V23H50V17.5312C50 17.125 49.9401 16.8047 49.8203 16.5703C49.7057 16.3307 49.5365 16.1615 49.3125 16.0625C49.0938 15.9583 48.8203 15.9062 48.4922 15.9062C48.1693 15.9062 47.8802 15.974 47.625 16.1094C47.3698 16.2448 47.1536 16.4297 46.9766 16.6641C46.8047 16.8984 46.6719 17.1693 46.5781 17.4766C46.4844 17.7839 46.4375 18.112 46.4375 18.4609ZM58.5781 21.3047V17.2734C58.5781 16.9714 58.5234 16.7109 58.4141 16.4922C58.3047 16.2734 58.138 16.1042 57.9141 15.9844C57.6953 15.8646 57.4193 15.8047 57.0859 15.8047C56.7786 15.8047 56.513 15.8568 56.2891 15.9609C56.0651 16.0651 55.8906 16.2057 55.7656 16.3828C55.6406 16.5599 55.5781 16.7604 55.5781 16.9844H53.7031C53.7031 16.651 53.7839 16.3281 53.9453 16.0156C54.1068 15.7031 54.3411 15.4245 54.6484 15.1797C54.9557 14.9349 55.3229 14.7422 55.75 14.6016C56.1771 14.4609 56.6562 14.3906 57.1875 14.3906C57.8229 14.3906 58.3854 14.4974 58.875 14.7109C59.3698 14.9245 59.7578 15.2474 60.0391 15.6797C60.3255 16.1068 60.4688 16.6432 60.4688 17.2891V21.0469C60.4688 21.4323 60.4948 21.7786 60.5469 22.0859C60.6042 22.388 60.6849 22.651 60.7891 22.875V23H58.8594C58.7708 22.7969 58.7005 22.5391 58.6484 22.2266C58.6016 21.9089 58.5781 21.6016 58.5781 21.3047ZM58.8516 17.8594L58.8672 19.0234H57.5156C57.1667 19.0234 56.8594 19.0573 56.5938 19.125C56.3281 19.1875 56.1068 19.2812 55.9297 19.4062C55.7526 19.5312 55.6198 19.6823 55.5312 19.8594C55.4427 20.0365 55.3984 20.237 55.3984 20.4609C55.3984 20.6849 55.4505 20.8906 55.5547 21.0781C55.6589 21.2604 55.8099 21.4036 56.0078 21.5078C56.2109 21.612 56.4557 21.6641 56.7422 21.6641C57.1276 21.6641 57.4635 21.5859 57.75 21.4297C58.0417 21.2682 58.2708 21.0729 58.4375 20.8438C58.6042 20.6094 58.6927 20.388 58.7031 20.1797L59.3125 21.0156C59.25 21.2292 59.1432 21.4583 58.9922 21.7031C58.8411 21.9479 58.6432 22.1823 58.3984 22.4062C58.1589 22.625 57.8698 22.8047 57.5312 22.9453C57.1979 23.0859 56.8125 23.1562 56.375 23.1562C55.8229 23.1562 55.3307 23.0469 54.8984 22.8281C54.4661 22.6042 54.1276 22.3047 53.8828 21.9297C53.638 21.5495 53.5156 21.1198 53.5156 20.6406C53.5156 20.1927 53.599 19.7969 53.7656 19.4531C53.9375 19.1042 54.1875 18.8125 54.5156 18.5781C54.849 18.3438 55.2552 18.1667 55.7344 18.0469C56.2135 17.9219 56.7604 17.8594 57.375 17.8594H58.8516ZM64.3203 16.2656V23H62.4375V14.5469H64.2109L64.3203 16.2656ZM64.0156 18.4609L63.375 18.4531C63.375 17.8698 63.4479 17.3307 63.5938 16.8359C63.7396 16.3411 63.9531 15.9115 64.2344 15.5469C64.5156 15.1771 64.8646 14.8932 65.2812 14.6953C65.7031 14.4922 66.1901 14.3906 66.7422 14.3906C67.1276 14.3906 67.4792 14.4479 67.7969 14.5625C68.1198 14.6719 68.3984 14.8464 68.6328 15.0859C68.8724 15.3255 69.0547 15.6328 69.1797 16.0078C69.3099 16.3828 69.375 16.8359 69.375 17.3672V23H67.4922V17.5312C67.4922 17.1198 67.4297 16.7969 67.3047 16.5625C67.1849 16.3281 67.0104 16.1615 66.7812 16.0625C66.5573 15.9583 66.2891 15.9062 65.9766 15.9062C65.6224 15.9062 65.3203 15.974 65.0703 16.1094C64.8255 16.2448 64.625 16.4297 64.4688 16.6641C64.3125 16.8984 64.1979 17.1693 64.125 17.4766C64.0521 17.7839 64.0156 18.112 64.0156 18.4609ZM69.2578 17.9609L68.375 18.1562C68.375 17.6458 68.4453 17.1641 68.5859 16.7109C68.7318 16.2526 68.9427 15.8516 69.2188 15.5078C69.5 15.1589 69.8464 14.8854 70.2578 14.6875C70.6693 14.4896 71.1406 14.3906 71.6719 14.3906C72.1042 14.3906 72.4896 14.4505 72.8281 14.5703C73.1719 14.6849 73.4635 14.8672 73.7031 15.1172C73.9427 15.3672 74.125 15.6927 74.25 16.0938C74.375 16.4896 74.4375 16.9688 74.4375 17.5312V23H72.5469V17.5234C72.5469 17.0964 72.4844 16.7656 72.3594 16.5312C72.2396 16.2969 72.0677 16.1354 71.8438 16.0469C71.6198 15.9531 71.3516 15.9062 71.0391 15.9062C70.7474 15.9062 70.4896 15.9609 70.2656 16.0703C70.0469 16.1745 69.862 16.3229 69.7109 16.5156C69.5599 16.7031 69.4453 16.9193 69.3672 17.1641C69.2943 17.4089 69.2578 17.6745 69.2578 17.9609ZM80.1016 23.1562C79.4766 23.1562 78.9115 23.0547 78.4062 22.8516C77.9062 22.6432 77.4792 22.3542 77.125 21.9844C76.776 21.6146 76.5078 21.1797 76.3203 20.6797C76.1328 20.1797 76.0391 19.6406 76.0391 19.0625V18.75C76.0391 18.0885 76.1354 17.4896 76.3281 16.9531C76.5208 16.4167 76.7891 15.9583 77.1328 15.5781C77.4766 15.1927 77.8828 14.8984 78.3516 14.6953C78.8203 14.4922 79.3281 14.3906 79.875 14.3906C80.4792 14.3906 81.0078 14.4922 81.4609 14.6953C81.9141 14.8984 82.2891 15.1849 82.5859 15.5547C82.888 15.9193 83.112 16.3542 83.2578 16.8594C83.4089 17.3646 83.4844 17.9219 83.4844 18.5312V19.3359H76.9531V17.9844H81.625V17.8359C81.6146 17.4974 81.5469 17.1797 81.4219 16.8828C81.3021 16.5859 81.1172 16.3464 80.8672 16.1641C80.6172 15.9818 80.2839 15.8906 79.8672 15.8906C79.5547 15.8906 79.276 15.9583 79.0312 16.0938C78.7917 16.224 78.5911 16.4141 78.4297 16.6641C78.2682 16.9141 78.1432 17.2161 78.0547 17.5703C77.9714 17.9193 77.9297 18.3125 77.9297 18.75V19.0625C77.9297 19.4323 77.9792 19.776 78.0781 20.0938C78.1823 20.4062 78.3333 20.6797 78.5312 20.9141C78.7292 21.1484 78.9688 21.3333 79.25 21.4688C79.5312 21.599 79.8516 21.6641 80.2109 21.6641C80.6641 21.6641 81.0677 21.5729 81.4219 21.3906C81.776 21.2083 82.0833 20.9505 82.3438 20.6172L83.3359 21.5781C83.1536 21.8438 82.9167 22.099 82.625 22.3438C82.3333 22.5833 81.9766 22.7786 81.5547 22.9297C81.138 23.0807 80.6536 23.1562 80.1016 23.1562Z" fill="#222222"/>
</svg>
