<svg width="16" height="16" viewBox="0 0 16 16" fill="none" xmlns="http://www.w3.org/2000/svg">
<rect width="16" height="16" rx="2" fill="#3D5EEC"/>
<path d="M12 8.66533H8.66671V11.9987C8.66671 12.1755 8.59647 12.345 8.47144 12.4701C8.34642 12.5951 8.17685 12.6653 8.00004 12.6653C7.82323 12.6653 7.65366 12.5951 7.52864 12.4701C7.40361 12.345 7.33337 12.1755 7.33337 11.9987V8.66533H4.00004C3.82323 8.66533 3.65366 8.5951 3.52864 8.47007C3.40361 8.34505 3.33337 8.17548 3.33337 7.99867C3.33337 7.82186 3.40361 7.65229 3.52864 7.52726C3.65366 7.40224 3.82323 7.332 4.00004 7.332H7.33337V3.99867C7.33337 3.82186 7.40361 3.65229 7.52864 3.52726C7.65366 3.40224 7.82323 3.332 8.00004 3.332C8.17685 3.332 8.34642 3.40224 8.47144 3.52726C8.59647 3.65229 8.66671 3.82186 8.66671 3.99867V7.332H12C12.1769 7.332 12.3464 7.40224 12.4714 7.52726C12.5965 7.65229 12.6667 7.82186 12.6667 7.99867C12.6667 8.17548 12.5965 8.34505 12.4714 8.47007C12.3464 8.5951 12.1769 8.66533 12 8.66533Z" fill="white"/>
</svg>
