<svg width="16" height="16" viewBox="0 0 16 16" fill="none" xmlns="http://www.w3.org/2000/svg">
<rect width="16" height="16" rx="2" fill="#767676"/>
<path d="M5.08337 13.25C4.76254 13.25 4.48779 13.1357 4.25912 12.907C4.03046 12.6783 3.91632 12.4038 3.91671 12.0833V4.5H3.33337V3.33333H6.25004V2.75H9.75004V3.33333H12.6667V4.5H12.0834V12.0833C12.0834 12.4042 11.969 12.6789 11.7404 12.9076C11.5117 13.1362 11.2372 13.2504 10.9167 13.25H5.08337ZM10.9167 4.5H5.08337V12.0833H10.9167V4.5ZM6.25004 10.9167H7.41671V5.66667H6.25004V10.9167ZM8.58337 10.9167H9.75004V5.66667H8.58337V10.9167Z" fill="white"/>
</svg>
