<svg width="127" height="34" viewBox="0 0 127 34" fill="none" xmlns="http://www.w3.org/2000/svg">
<rect width="127" height="34" rx="5" fill="#596175"/>
<path d="M34.5273 11.5V22H33.2559V11.5H34.5273ZM37.9316 14.6035V22H36.6602V14.6035H37.9316ZM36.5645 12.6416C36.5645 12.4365 36.626 12.2633 36.749 12.1221C36.8766 11.9808 37.0635 11.9102 37.3096 11.9102C37.5511 11.9102 37.7357 11.9808 37.8633 12.1221C37.9954 12.2633 38.0615 12.4365 38.0615 12.6416C38.0615 12.8376 37.9954 13.0062 37.8633 13.1475C37.7357 13.2842 37.5511 13.3525 37.3096 13.3525C37.0635 13.3525 36.8766 13.2842 36.749 13.1475C36.626 13.0062 36.5645 12.8376 36.5645 12.6416ZM44.2686 20.0381C44.2686 19.8558 44.2275 19.6872 44.1455 19.5322C44.068 19.3727 43.9062 19.2292 43.6602 19.1016C43.4186 18.9694 43.054 18.8555 42.5664 18.7598C42.1562 18.6732 41.7848 18.5706 41.4521 18.4521C41.124 18.3337 40.8438 18.1901 40.6113 18.0215C40.3835 17.8529 40.208 17.6546 40.085 17.4268C39.9619 17.1989 39.9004 16.9323 39.9004 16.627C39.9004 16.3353 39.9642 16.0596 40.0918 15.7998C40.224 15.54 40.4085 15.3099 40.6455 15.1094C40.887 14.9089 41.1764 14.7516 41.5137 14.6377C41.8509 14.5238 42.2269 14.4668 42.6416 14.4668C43.234 14.4668 43.7399 14.5716 44.1592 14.7812C44.5785 14.9909 44.8997 15.2712 45.123 15.6221C45.3464 15.9684 45.458 16.3535 45.458 16.7773H44.1934C44.1934 16.5723 44.1318 16.374 44.0088 16.1826C43.8903 15.9867 43.7148 15.8249 43.4824 15.6973C43.2546 15.5697 42.9743 15.5059 42.6416 15.5059C42.2907 15.5059 42.0059 15.5605 41.7871 15.6699C41.5729 15.7747 41.4157 15.9092 41.3154 16.0732C41.2197 16.2373 41.1719 16.4105 41.1719 16.5928C41.1719 16.7295 41.1947 16.8525 41.2402 16.9619C41.2904 17.0667 41.377 17.1647 41.5 17.2559C41.623 17.3424 41.7962 17.4245 42.0195 17.502C42.2428 17.5794 42.5277 17.6569 42.874 17.7344C43.4801 17.8711 43.9792 18.0352 44.3711 18.2266C44.763 18.418 45.0547 18.6527 45.2461 18.9307C45.4375 19.2087 45.5332 19.5459 45.5332 19.9424C45.5332 20.266 45.4648 20.5622 45.3281 20.8311C45.196 21.0999 45.0023 21.3324 44.7471 21.5283C44.4964 21.7197 44.1956 21.8701 43.8447 21.9795C43.4984 22.0843 43.1087 22.1367 42.6758 22.1367C42.0241 22.1367 41.4727 22.0205 41.0215 21.7881C40.5703 21.5557 40.2285 21.2549 39.9961 20.8857C39.7637 20.5166 39.6475 20.127 39.6475 19.7168H40.9189C40.9372 20.0632 41.0374 20.3389 41.2197 20.5439C41.402 20.7445 41.6253 20.888 41.8896 20.9746C42.154 21.0566 42.416 21.0977 42.6758 21.0977C43.0221 21.0977 43.3115 21.0521 43.5439 20.9609C43.7809 20.8698 43.9609 20.7445 44.084 20.585C44.207 20.4255 44.2686 20.2432 44.2686 20.0381ZM50.291 14.6035V15.5742H46.292V14.6035H50.291ZM47.6455 12.8057H48.9102V20.168C48.9102 20.4186 48.9489 20.6077 49.0264 20.7354C49.1038 20.863 49.2041 20.9473 49.3271 20.9883C49.4502 21.0293 49.5824 21.0498 49.7236 21.0498C49.8285 21.0498 49.9378 21.0407 50.0518 21.0225C50.1702 20.9997 50.2591 20.9814 50.3184 20.9678L50.3252 22C50.2249 22.0319 50.0928 22.0615 49.9287 22.0889C49.7692 22.1208 49.5755 22.1367 49.3477 22.1367C49.0378 22.1367 48.7529 22.0752 48.4932 21.9521C48.2334 21.8291 48.026 21.624 47.8711 21.3369C47.7207 21.0452 47.6455 20.6533 47.6455 20.1611V12.8057Z" fill="white"/>
<path d="M22 16.5V17.5C22 17.6326 21.9473 17.7598 21.8536 17.8536C21.7598 17.9473 21.6326 18 21.5 18H10.5C10.3674 18 10.2402 17.9473 10.1464 17.8536C10.0527 17.7598 10 17.6326 10 17.5V16.5C10 16.3674 10.0527 16.2402 10.1464 16.1464C10.2402 16.0527 10.3674 16 10.5 16H21.5C21.6326 16 21.7598 16.0527 21.8536 16.1464C21.9473 16.2402 22 16.3674 22 16.5ZM21.5 20H10.5C10.3674 20 10.2402 20.0527 10.1464 20.1464C10.0527 20.2402 10 20.3674 10 20.5V21.5C10 21.6326 10.0527 21.7598 10.1464 21.8536C10.2402 21.9473 10.3674 22 10.5 22H21.5C21.6326 22 21.7598 21.9473 21.8536 21.8536C21.9473 21.7598 22 21.6326 22 21.5V20.5C22 20.3674 21.9473 20.2402 21.8536 20.1464C21.7598 20.0527 21.6326 20 21.5 20ZM21.5 12H10.5C10.3674 12 10.2402 12.0527 10.1464 12.1464C10.0527 12.2402 10 12.3674 10 12.5V13.5C10 13.6326 10.0527 13.7598 10.1464 13.8536C10.2402 13.9473 10.3674 14 10.5 14H21.5C21.6326 14 21.7598 13.9473 21.8536 13.8536C21.9473 13.7598 22 13.6326 22 13.5V12.5C22 12.3674 21.9473 12.2402 21.8536 12.1464C21.7598 12.0527 21.6326 12 21.5 12Z" fill="white"/>
<path d="M109 15.2666L109.933 14.3333L113 17.4L116.067 14.3333L117 15.2666L113 19.2666L109 15.2666Z" fill="white"/>
</svg>
